Coordinates
version=1
nRows=10
nColumns=33
inDegrees=yes

Units are S.I. units (second, meters, Newtons, ...)
Angles are in degrees.

endheader
time	ground_thorax_rot_x	ground_thorax_rot_y	ground_thorax_rot_z	ground_thorax_tx	ground_thorax_ty	ground_thorax_tz	clav_prot_r	clav_elev_r	scapula_abduction_r	scapula_elevation_r	scapula_upward_rot_r	scapula_winging_r	shoulder_elv_r	plane_of_elev_r	axial_rot_r	elbow_flexion_r	pro_sup_r	wrist_flex_r	wrist_dev_r	clav_prot_l	clav_elev_l	scapula_abduction_l	scapula_elevation_l	scapula_upward_rot_l	scapula_winging_l	shoulder_elv_l	plane_of_elev_l	axial_rot_l	elbow_flexion_l	pro_sup_l	wrist_flex_l	wrist_dev_l
      2.54000000	     42.09341497	     -3.33349910	     -3.56294550	    -31.11328234	    790.62511850	      2.92616667	     12.96290036	     44.67605582	     45.00000000	     45.00000000	    -13.14629173	  -4038.57152994	  -1911.88774384	    144.60472358	    179.99999979	   1086.93889929	     32.26594321	     16.87415148	     13.82896726	      4.32189742	    -45.00000000	    -45.00000000	     45.00000000	     -3.00718609	    801.00125406	  -2616.72740298	    131.85113088	   -145.27581065	    360.84128356	   -321.78878858	     11.41555393	    -20.27738066
      2.55000000	     42.04615760	     -3.65500251	     -3.67108342	    -32.19445778	    791.32488165	      2.99734646	     12.73290796	     44.57512643	     45.00000000	     45.00000000	    -12.93525011	  -4038.73279608	  -1911.69503415	    144.64111066	    179.99999979	   1087.32044283	     32.25674081	     17.20033571	     13.69766910	      4.13454258	    -45.00000000	    -45.00000000	     45.00000000	     -2.51245952	    801.26324550	  -2616.72234134	    131.94972585	   -145.66002803	    361.19736790	   -321.97952289	     11.30230269	    -20.45991066
      2.56000000	     42.00153127	     -3.74634165	     -3.60567347	    -33.59638629	    791.98623808	      3.06378227	     12.66701009	     44.52616894	     45.00000000	     45.00000000	    -13.10146739	  -4038.95734163	  -1911.45760898	    144.64970612	    179.99999979	   1087.68409377	     32.23096931	     17.35109822	     13.57476335	      4.02552122	    -45.00000000	    -45.00000000	     45.00000000	     -2.30361459	    801.58413188	  -2616.66760919	    131.96041434	   -146.11490079	    361.49235898	   -322.20183305	     11.30657492	    -20.62844172
      2.57000000	     41.94323678	     -3.87075725	     -3.46074969	    -35.30391443	    792.63330498	      3.11538576	     12.63181598	     44.29088890	     45.00000000	     45.00000000	    -13.28564663	  -4039.20250383	  -1911.24385143	    144.56711594	    179.99999979	   1088.07100795	     32.18332805	     17.57798557	     13.44720097	      3.94923890	    -45.00000000	    -45.00000000	     45.00000000	     -2.13195591	    802.04190543	  -2616.58650117	    131.97948895	   -146.69204611	    361.78021535	   -322.46061145	     11.29809830	    -20.80541358
      2.58000000	     41.88976685	     -3.73425310	     -3.18135500	    -37.31848427	    793.28941073	      3.15172163	     12.77115395	     44.56917972	     45.00000000	     45.00000000	    -13.88627502	  -4039.30865266	  -1910.80401345	    144.64214097	    179.99999979	   1088.38529756	     32.12102224	     17.70862717	     13.23540068	      3.96797917	    -45.00000000	    -45.00000000	     45.00000000	     -2.26359873	    802.24687359	  -2616.43433299	    132.15048918	   -147.40674383	    362.00993174	   -322.82273413	     11.24366897	    -20.87342355
      2.59000000	     41.81379581	     -3.70337774	     -2.93584914	    -39.63845320	    793.97198330	      3.17392938	     12.79552573	     44.42575826	     45.00000000	     45.00000000	    -14.33364086	  -4039.52949223	  -1910.48602680	    144.63743298	    179.99999979	   1088.74046265	     32.08250302	     17.94424685	     13.07592354	      3.93862863	    -45.00000000	    -45.00000000	     45.00000000	     -2.25713928	    802.68315665	  -2616.37342796	    132.26664812	   -148.26843998	    362.34867738	   -323.24130330	     11.22168884	    -21.03190888
      2.60000000	     41.71055615	     -3.68270324	     -2.66339727	    -42.26738891	    794.69337691	      3.18390895	     12.81494959	     44.33741487	     45.00000000	     45.00000000	    -14.71550796	  -4039.75911777	  -1910.16971573	    144.66955304	    179.99999979	   1089.07222240	     32.08069427	     18.18201026	     12.88384893	      3.89801245	    -45.00000000	    -45.00000000	     45.00000000	     -2.20112444	    803.13413857	  -2616.32526807	    132.42605515	   -149.22370740	    362.77215176	   -323.71855474	     11.16672037	    -21.18608237
      2.61000000	     41.64364231	     -3.66619013	     -2.43339337	    -45.19602158	    795.45809761	      3.18287201	     12.93146204	     44.19718347	     45.00000000	     45.00000000	    -15.21309350	  -4039.99705804	  -1909.91357476	    144.66522716	    179.99999979	   1089.37307036	     32.10423094	     18.41698403	     12.66452134	      3.89938854	    -45.00000000	    -45.00000000	     45.00000000	     -2.30110412	    803.64404213	  -2616.25509081	    132.59137104	   -150.19987398	    363.00629489	   -324.23318887	     11.13143482	    -21.29639757
      2.62000000	     41.53297322	     -3.51893264	     -2.14714320	    -48.44467256	    796.27597227	      3.17347226	     12.92436544	     43.98254783	     45.00000000	     45.00000000	    -15.87337518	  -4040.25733828	  -1909.60457279	    144.68150691	    179.99999979	   1089.62514299	     32.20391009	     18.68156848	     12.47780702	      3.89751858	    -45.00000000	    -45.00000000	     45.00000000	     -2.44223899	    804.19627764	  -2616.21554906	    132.74980904	   -151.43020738	    363.41127987	   -324.79893919	     11.06537241	    -21.43693161
      2.63000000	     41.40162125	     -3.34555773	     -1.78928975	    -52.00809786	    797.14682499	      3.15917110	     13.02007922	     43.74667142	     45.00000000	     45.00000000	    -16.84901505	  -4040.55421634	  -1909.22751150	    144.57592417	    179.99999979	   1089.88009300	     32.27172757	     18.91936750	     12.17162838	      3.93294999	    -45.00000000	    -45.00000000	     45.00000000	     -2.60854845	    804.76070650	  -2616.14498328	    132.90049838	   -152.73502903	    363.68606050	   -325.41448090	     11.00025830	    -21.52922185
